# xmcd
#
# Track frame offsets: 
#        150
#        16012
#        39935
#        62172
#        81000
#        107850
#        127575
#        152250
#        175650
#        191100
#
# Disc length: 2848 seconds
#
# Revision: 0
# Processed by: cddbd v1.4PL0 Copyright (c) Steve Scherf et al.
# Submitted via: ExactAudioCopy v0.90a11
#
DISCID=690b1e0a
DTITLE=Maranatha! - Songs for Worship 2001
DYEAR=1900
DGENRE=
TTITLE0=Let Your Kingdom Come
TTITLE1=You're Worthy of my Praise
TTITLE2=Eternal Wonderful God
TTITLE3=I Will Sing
TTITLE4=Song of the Lamb
TTITLE5=Immanuel
TTITLE6=Not My Will
TTITLE7=Your Love Feeds My Soul/I've Got Peace Like a River
TTITLE8=Let It Rise
TTITLE9=Fuel
EXTD=
EXTT0=
EXTT1=
EXTT2=
EXTT3=
EXTT4=
EXTT5=
EXTT6=
EXTT7=
EXTT8=
EXTT9=
PLAYORDER=
